<svg width="42" height="42" viewBox="0 0 42 42" fill="none" xmlns="http://www.w3.org/2000/svg">
<path d="M0 12.4415C0 9.12997 1.31667 6.00558 3.72103 3.64825C6.12539 1.29092 9.31212 0 12.6897 0H42V6.32363H12.6897C11.0295 6.32363 9.46478 6.95973 8.28168 8.11969C7.09859 9.27964 6.44979 10.8138 6.44979 12.4415L6.41163 23.0494C6.10631 25.8745 3.95002 28.157 1.14493 28.5686L0 28.737V12.4415Z" fill="white"/>
<path d="M0 42L0 35.6805H29.3103C30.9704 35.6805 32.5352 35.0448 33.7183 33.8856C34.9014 32.7264 35.5502 31.1933 35.5502 29.5667V19.4891C35.5502 16.4976 37.821 13.8988 40.855 13.4313L42 13.2631V29.548C42 32.8573 40.6833 35.9797 38.2789 38.3355C35.8746 40.6912 32.6879 41.9813 29.3103 41.9813H0L0 42Z" fill="white"/>
<path d="M24.344 28.7368V20.8828L20.4229 25.1881L16.5212 20.8828V28.7368H11.3516V13.2631H16.2481L20.4229 18.2348L24.6172 13.2631H29.5137V28.7368H24.344Z" fill="white"/>
</svg>
